<?xml version="1.0" standalone="no"?>
<!DOCTYPE svg PUBLIC "-//W3C//DTD SVG 20010904//EN"
 "http://www.w3.org/TR/2001/REC-SVG-20010904/DTD/svg10.dtd">
<svg version="1.0" xmlns="http://www.w3.org/2000/svg"
 width="70.000000pt" height="70.000000pt" viewBox="0 0 70.000000 70.000000"
 preserveAspectRatio="xMidYMid meet">
<metadata>
Created by potrace 1.11, written by Peter Selinger 2001-2013
</metadata>
<g transform="translate(0.000000,70.000000) scale(0.100000,-0.100000)"
fill="#000000" stroke="none">
<path d="M0 350 l0 -350 350 0 350 0 0 350 0 350 -350 0 -350 0 0 -350z m341
84 l54 -66 5 64 5 63 48 3 47 3 0 -150 0 -151 -42 1 c-40 0 -47 4 -93 60 l-50
59 -3 -60 -3 -60 -54 0 -55 0 0 143 c0 79 3 147 7 150 3 4 23 7 43 7 33 0 42
-7 91 -66z"/>
</g>
</svg>
